<?xml version="1.0" standalone="no"?>
<!DOCTYPE svg PUBLIC "-//W3C//DTD SVG 20010904//EN"
 "http://www.w3.org/TR/2001/REC-SVG-20010904/DTD/svg10.dtd">
<svg version="1.0" xmlns="http://www.w3.org/2000/svg"
 width="512.000000pt" height="512.000000pt" viewBox="0 0 512.000000 512.000000"
 preserveAspectRatio="xMidYMid meet">
<metadata>
Created by potrace 1.14, written by Peter Selinger 2001-2017
</metadata>
<g transform="translate(0.000000,512.000000) scale(0.100000,-0.100000)"
fill="#000000" stroke="none">
<path d="M2540 4046 c-494 -71 -951 -353 -1129 -696 -71 -135 -86 -197 -86
-345 0 -138 12 -185 65 -252 49 -62 153 -106 279 -119 83 -8 79 -15 46 76 -23
62 -30 218 -15 336 25 204 99 367 231 508 89 95 168 153 290 211 184 86 376
122 562 105 151 -15 244 -56 324 -143 145 -157 147 -399 5 -627 -113 -182
-288 -300 -445 -300 -42 0 -49 3 -45 18 27 106 180 853 175 858 -7 7 -569 -66
-579 -75 -3 -3 -126 -566 -272 -1251 -146 -685 -268 -1255 -271 -1267 l-5 -23
288 0 289 0 163 765 163 765 33 6 c19 3 86 5 151 3 105 -4 124 -7 175 -32 91
-44 148 -124 184 -258 24 -87 24 -330 1 -450 -63 -320 -185 -479 -368 -479
-91 0 -146 22 -217 86 l-61 55 -20 -65 c-43 -139 -36 -258 19 -335 74 -102
284 -153 488 -117 167 29 274 88 397 217 164 173 268 402 320 703 20 117 20
317 -1 409 -47 214 -190 382 -368 433 -36 10 -66 21 -66 24 0 3 37 32 82 65
183 135 298 354 298 568 0 298 -212 529 -558 608 -115 26 -388 34 -522 15z"/>
</g>
</svg>
